<svg width="27" height="27" viewBox="0 0 27 27" fill="none" xmlns="http://www.w3.org/2000/svg">
<mask id="mask0_58_605" style="mask-type:alpha" maskUnits="userSpaceOnUse" x="0" y="0" width="27" height="27">
<rect width="27" height="27" fill="#D9D9D9"/>
</mask>
<g mask="url(#mask0_58_605)">
<path d="M5.25009 24.7498C4.73447 24.7498 4.293 24.5662 3.92569 24.1991C3.55856 23.8318 3.375 23.3903 3.375 22.8747V8.43726C3.375 7.92163 3.55856 7.48026 3.92569 7.11313C4.293 6.74582 4.73447 6.56216 5.25009 6.56216H8.06259C8.06259 5.06854 8.57972 3.78885 9.61397 2.7231C10.6484 1.65754 11.9125 1.12476 13.4063 1.12476C14.9365 1.12476 16.241 1.65135 17.3197 2.70454C18.3982 3.75754 18.9374 5.04341 18.9374 6.56216H21.7499C22.2655 6.56216 22.707 6.74582 23.0743 7.11313C23.4414 7.48026 23.625 7.92163 23.625 8.43726V22.8747C23.625 23.3903 23.4414 23.8318 23.0743 24.1991C22.707 24.5662 22.2655 24.7498 21.7499 24.7498H5.25009ZM5.25009 22.8747H21.7499V8.43726H5.25009V22.8747ZM13.5 15.1873C15.0062 15.1873 16.3046 14.6419 17.3953 13.5512C18.486 12.4607 19.0313 11.1623 19.0313 9.65591H17.1563C17.1563 10.656 16.7969 11.5154 16.0782 12.2341C15.3593 12.9528 14.4999 13.3122 13.5 13.3122C12.5001 13.3122 11.6407 12.9528 10.9218 12.2341C10.2031 11.5154 9.84375 10.656 9.84375 9.65591H7.96866C7.96866 11.1623 8.514 12.4607 9.60469 13.5512C10.6954 14.6419 11.9938 15.1873 13.5 15.1873ZM9.93741 6.56216H17.0626C17.0626 5.56223 16.7188 4.71848 16.0312 4.03091C15.3437 3.34354 14.4999 2.99985 13.5 2.99985C12.5001 2.99985 11.6563 3.34354 10.9688 4.03091C10.2812 4.71848 9.93741 5.56223 9.93741 6.56216Z" fill="#B57D62"/>
</g>
</svg>
